<?xml version="1.0" encoding="UTF-8"?>
<svg version="1.1" xmlns="http://www.w3.org/2000/svg" width="334" height="277">
<path d="M0 0 C0.66 0 1.32 0 2 0 C3.33764648 1.74975586 3.33764648 1.74975586 4.87109375 4.21484375 C5.44005371 5.12057129 6.00901367 6.02629883 6.59521484 6.95947266 C7.20316895 7.94222168 7.81112305 8.9249707 8.4375 9.9375 C9.70909691 11.96518156 10.98123827 13.99252178 12.25390625 16.01953125 C13.20354248 17.53861084 13.20354248 17.53861084 14.17236328 19.08837891 C17.98968167 25.16977606 21.90661784 31.18693979 25.82861328 37.20117188 C26.87853675 38.81347619 27.92210974 40.42991172 28.96484375 42.046875 C35.6209906 52.23514207 42.59869478 62.90307499 50.75463867 71.9453125 C52 74 52 74 51.85644531 76.51293945 C50.9694208 79.08879998 50.0081649 80.68759544 48.296875 82.79296875 C47.73532715 83.49631348 47.1737793 84.1996582 46.59521484 84.92431641 C45.98629395 85.67116699 45.37737305 86.41801758 44.75 87.1875 C43.46351805 88.8012941 42.17973027 90.41723906 40.8984375 92.03515625 C40.24584961 92.85902832 39.59326172 93.68290039 38.92089844 94.53173828 C35.96997071 98.32353789 33.16628151 102.21490783 30.375 106.125 C25.72863124 112.62130535 21.00353734 119.04764157 16.18945312 125.4206543 C12.55058572 130.24288824 9.00920091 135.12410589 5.5234375 140.05859375 C4 142 4 142 2 143 C-0.75867692 143.09585276 -3.49201382 143.13011284 -6.25088501 143.12025452 C-7.11422341 143.12110894 -7.97756181 143.12196337 -8.86706197 143.12284368 C-11.77679251 143.12449843 -14.68646613 143.11897718 -17.59619141 143.11352539 C-19.6752777 143.11324349 -21.75436409 143.11340131 -23.83345032 143.1139679 C-29.49225098 143.11425577 -35.15103061 143.10836073 -40.80982637 143.10139394 C-46.71821773 143.09515866 -52.62660952 143.09455646 -58.53500366 143.09336853 C-69.72992899 143.09025573 -80.9248446 143.08204303 -92.11976564 143.07201904 C-104.86201085 143.06085631 -117.60425652 143.05534705 -130.3465054 143.05032361 C-156.56434233 143.03986038 -182.78217062 143.02226193 -209 143 C-209 139.29883494 -208.10102436 138.4789845 -205.8515625 135.60546875 C-205.18092773 134.73946045 -204.51029297 133.87345215 -203.81933594 132.98120117 C-203.09520508 132.05927979 -202.37107422 131.1373584 -201.625 130.1875 C-200.1416138 128.27208326 -198.65984117 126.3554158 -197.1796875 124.4375 C-196.0963916 123.03564453 -196.0963916 123.03564453 -194.99121094 121.60546875 C-192.50305703 118.34975779 -190.10561026 115.03981015 -187.75 111.6875 C-182.79018855 104.64935106 -177.62179211 97.77548151 -172.43408203 90.90429688 C-171.05317851 89.07061498 -169.67936785 87.23188743 -168.30859375 85.390625 C-167.6889978 84.55942139 -167.6889978 84.55942139 -167.05688477 83.71142578 C-165.95129151 82.22740492 -164.84670219 80.74263628 -163.7421875 79.2578125 C-162 77 -162 77 -160 75 C-158.13756943 74.7913599 -158.13756943 74.7913599 -155.82952881 74.84938049 C-154.51790268 74.87382233 -154.51790268 74.87382233 -153.17977905 74.89875793 C-152.21778595 74.9264476 -151.25579285 74.95413727 -150.26464844 74.98266602 C-148.16682073 75.02512083 -146.06898064 75.06696694 -143.97113037 75.10829163 C-142.85393364 75.13330309 -141.73673691 75.15831455 -140.58568573 75.18408394 C-134.66702568 75.30296126 -128.74768992 75.34504285 -122.828125 75.39648438 C-115.29491596 75.46220469 -107.76537381 75.55156065 -100.234375 75.75073242 C-94.14906519 75.90962361 -88.06900338 75.97415633 -81.98169708 75.97697258 C-79.67056784 75.99477111 -77.35942658 76.04616906 -75.04985809 76.13293648 C-62.6575522 76.87877828 -62.6575522 76.87877828 -51.6635952 72.13029861 C-47.44796152 67.61459073 -44.26032606 62.59074028 -41.26284313 57.210536 C-39.63623588 54.36325133 -37.76574195 51.8704865 -35.73828125 49.296875 C-35.16311768 48.53286377 -34.5879541 47.76885254 -33.99536133 46.98168945 C-33.44001709 46.24523193 -32.88467285 45.50877441 -32.3125 44.75 C-21.2651504 30.04930892 -10.20351983 15.30527975 0 0 Z " fill="#07A1FC" transform="translate(221,113)"/>
<path d="M0 0 C2.09982101 0.00338762 4.19965623 0.00147953 6.29946899 -0.00531006 C11.98389273 -0.00874635 17.66526372 0.06168199 23.34897923 0.14557743 C29.29454166 0.22071291 35.24017804 0.22765141 41.18614197 0.24188232 C52.43816844 0.27914556 63.68879193 0.37757034 74.94020122 0.4980762 C87.75254306 0.63231437 100.56495274 0.698211 113.377823 0.75842142 C139.72783817 0.8837742 166.07660895 1.09477576 192.42553711 1.36230469 C191.09091243 4.0834059 189.69244165 6.53087729 187.91381836 8.98730469 C187.41116455 9.68331787 186.90851074 10.37933105 186.390625 11.09643555 C185.57259399 12.21804077 185.57259399 12.21804077 184.73803711 13.36230469 C184.16496826 14.15193604 183.59189941 14.94156738 183.00146484 15.75512695 C178.10086083 22.48511355 173.11544542 29.15033307 168.10473633 35.79858398 C164.90261739 40.049188 161.71902117 44.31143168 158.57397461 48.60449219 C157.95063232 49.455354 157.32729004 50.30621582 156.68505859 51.18286133 C155.51024368 52.78963285 154.33770515 54.39807246 153.16796875 56.00854492 C152.36540649 57.10598022 152.36540649 57.10598022 151.54663086 58.22558594 C150.85718384 59.17365112 150.85718384 59.17365112 150.15380859 60.14086914 C149.583479 60.87394287 149.01314941 61.6070166 148.42553711 62.36230469 C148.05603408 62.9309471 147.68653105 63.49958952 147.30583096 64.08546352 C145.26112098 66.9290005 143.66204326 69.0156738 140.20823193 69.98388386 C137.49459089 70.18582125 134.86055826 70.16827499 132.14086914 70.07421875 C131.11896484 70.06732529 130.09706055 70.06043182 129.04418945 70.05332947 C126.83091559 70.03453738 124.61773154 69.99997053 122.40491104 69.95139313 C118.89833162 69.87718865 115.39423755 69.85013482 111.88693237 69.83612061 C101.91948276 69.78763795 91.95372496 69.65264793 81.98754883 69.48974609 C75.88553269 69.39326415 69.78495346 69.35037692 63.68221664 69.33904266 C61.36082031 69.32337614 59.03946479 69.2865751 56.71875381 69.22803497 C44.3407451 68.3857638 44.3407451 68.3857638 33.29669189 72.72427368 C31.22656223 75.53716758 29.82728459 78.17553265 28.42553711 81.36230469 C27.36888436 82.8861053 26.2806948 84.38920693 25.14428711 85.85449219 C24.62060547 86.56839111 24.09692383 87.28229004 23.55737305 88.01782227 C17.17541906 96.69800535 10.68541969 105.2878011 4.13354492 113.84033203 C-0.56297684 119.98823349 -5.11826909 126.21500723 -9.55883789 132.54980469 C-11.48036004 135.23099838 -13.48910132 137.80726709 -15.57446289 140.36230469 C-19.74118547 138.8505686 -21.6251469 135.89144896 -24.01196289 132.36230469 C-24.89919145 131.08571203 -25.78725341 129.80969829 -26.67602539 128.53417969 C-27.14556641 127.85548828 -27.61510742 127.17679687 -28.09887695 126.47753906 C-30.64864737 122.82247439 -33.27086016 119.22003269 -35.88696289 115.61230469 C-36.99915539 114.07469856 -38.11113251 112.53693661 -39.22290039 110.99902344 C-39.77816406 110.23122559 -40.33342773 109.46342773 -40.90551758 108.67236328 C-42.53964588 106.4104964 -44.17083419 104.14654161 -45.80102539 101.88183594 C-46.33163574 101.14570068 -46.86224609 100.40956543 -47.40893555 99.65112305 C-48.47323764 98.17299773 -49.53543194 96.69335233 -50.59545898 95.2121582 C-53.51805306 91.14410298 -56.50303985 87.1398009 -59.57446289 83.18261719 C-60.2313208 82.32531006 -60.88817871 81.46800293 -61.56494141 80.5847168 C-62.83942517 78.92541085 -64.12852368 77.27720413 -65.43359375 75.6418457 C-69.67056928 70.08996734 -69.67056928 70.08996734 -69.21899414 66.67089844 C-68.67629883 65.9090625 -68.13360352 65.14722656 -67.57446289 64.36230469 C-66.95055664 63.48316406 -66.32665039 62.60402344 -65.68383789 61.69824219 C-64.90524414 60.72113281 -64.12665039 59.74402344 -63.32446289 58.73730469 C-62.41637138 57.5825004 -61.51023646 56.42615576 -60.60571289 55.26855469 C-60.1171582 54.64335938 -59.62860352 54.01816406 -59.12524414 53.37402344 C-56.29805014 49.70650477 -53.56424314 45.97031727 -50.82446289 42.23730469 C-50.23608643 41.43655518 -49.64770996 40.63580566 -49.04150391 39.81079102 C-47.8308697 38.16242446 -46.62066881 36.51373958 -45.41088867 34.86474609 C-42.36553743 30.71493883 -39.31398753 26.56970499 -36.26196289 22.42480469 C-35.72410156 21.69310059 -35.18624023 20.96139648 -34.63208008 20.20751953 C-33.57637334 18.77330955 -32.50369807 17.35140576 -31.41290188 15.94369888 C-29.48813547 13.3662582 -29.48813547 13.3662582 -27.99219608 10.33010483 C-21.21241246 -1.31783254 -12.47994301 -0.28161001 0 0 Z " fill="#08A1FC" transform="translate(122.574462890625,12.6376953125)"/>
<path d="M0 0 C0.66 0 1.32 0 2 0 C3.33764648 1.74975586 3.33764648 1.74975586 4.87109375 4.21484375 C5.44005371 5.12057129 6.00901367 6.02629883 6.59521484 6.95947266 C7.507146 8.43359619 7.507146 8.43359619 8.4375 9.9375 C9.70909691 11.96518156 10.98123827 13.99252178 12.25390625 16.01953125 C13.20354248 17.53861084 13.20354248 17.53861084 14.17236328 19.08837891 C17.98968167 25.16977606 21.90661784 31.18693979 25.82861328 37.20117188 C26.87853675 38.81347619 27.92210974 40.42991172 28.96484375 42.046875 C32.02342155 46.7285036 35.18418136 51.27383538 38.53515625 55.75 C39.48201294 57.01674561 39.48201294 57.01674561 40.44799805 58.30908203 C41.70867826 59.98775288 42.97679965 61.66086757 44.25317383 63.32763672 C44.83736084 64.10381348 45.42154785 64.87999023 46.0234375 65.6796875 C46.54856934 66.36788574 47.07370117 67.05608398 47.61474609 67.76513672 C49 70 49 70 51 76 C16.68 76 -17.64 76 -53 76 C-52.06434352 71.32171758 -51.62226719 70.05714678 -48.859375 66.55078125 C-47.88109741 65.29189087 -47.88109741 65.29189087 -46.88305664 64.00756836 C-46.17914795 63.1181958 -45.47523926 62.22882324 -44.75 61.3125 C-43.28326521 59.42594787 -41.81845109 57.53790106 -40.35546875 55.6484375 C-39.62118652 54.70194336 -38.8869043 53.75544922 -38.13037109 52.78027344 C-35.02353274 48.72564645 -32.03344103 44.5922557 -29.0625 40.4375 C-25.57160267 35.56321791 -22.06001282 30.71558143 -18.4375 25.9375 C-12.04780571 17.48125031 -5.87970475 8.81955713 0 0 Z " fill="#066CB1" transform="translate(221,113)"/>
<path d="M0 0 C34.32 0 68.64 0 104 0 C102.5165205 3.70869874 101.56864098 5.86918295 99.3046875 8.90625 C98.76191162 9.6391626 98.21913574 10.3720752 97.65991211 11.12719727 C97.07089111 11.91022217 96.48187012 12.69324707 95.875 13.5 C95.25826416 14.32878662 94.64152832 15.15757324 94.00610352 16.01147461 C88.70085828 23.12038351 83.30811534 30.16268603 77.91381836 37.20410156 C72.93588455 43.72027322 68.10332479 50.32947447 63.32910156 56.99584961 C59.67333716 62.0944643 55.93225825 67.10970065 52 72 C47.83327742 70.48826392 45.94931599 67.52914427 43.5625 64 C42.67527144 62.72340734 41.78720948 61.4473936 40.8984375 60.171875 C40.42889648 59.49318359 39.95935547 58.81449219 39.47558594 58.11523438 C36.92581625 54.46017075 34.30364729 50.85769457 31.6875 47.25 C30.57789267 45.7163139 29.46852004 44.18245796 28.359375 42.6484375 C27.80443359 41.88112305 27.24949219 41.11380859 26.67773438 40.32324219 C25.01626084 38.02251719 23.35905568 35.71877934 21.703125 33.4140625 C20.61463263 31.9010062 19.52609132 30.38798511 18.4375 28.875 C17.90833984 28.13781738 17.37917969 27.40063477 16.83398438 26.64111328 C14.11466051 22.86842496 11.35506154 19.13646112 8.515625 15.453125 C7.67753296 14.36088623 7.67753296 14.36088623 6.82250977 13.24658203 C5.75854925 11.86599119 4.68650186 10.49158251 3.60522461 9.12451172 C0.98619468 5.72293149 0 4.42665728 0 0 Z " fill="#096DB2" transform="translate(55,81)"/>
<path d="M0 0 C0.99 0 1.98 0 3 0 C3.33 1.32 3.66 2.64 4 4 C-65.63 4 -135.26 4 -207 4 C-207 3.67 -207 3.34 -207 3 C-206.25838623 2.97494385 -205.51677246 2.9498877 -204.75268555 2.92407227 C-201.39744672 2.80813868 -198.04249056 2.68540015 -194.6875 2.5625 C-192.93663086 2.50352539 -192.93663086 2.50352539 -191.15039062 2.44335938 C-190.03212891 2.40146484 -188.91386719 2.35957031 -187.76171875 2.31640625 C-186.73006592 2.27974854 -185.69841309 2.24309082 -184.63549805 2.20532227 C-181.89251742 2.09838758 -181.89251742 2.09838758 -179 1 C-177.33333333 1 -175.66666667 1 -174 1 C-174 1.66 -174 2.32 -174 3 C-166.48848683 2.88260931 -158.97712423 2.75777444 -151.46582031 2.62768555 C-148.90888293 2.58428978 -146.35191569 2.5426182 -143.79492188 2.50268555 C-140.12621041 2.44509531 -136.45764989 2.38136862 -132.7890625 2.31640625 C-131.64007477 2.29969376 -130.49108704 2.28298126 -129.30728149 2.26576233 C-127.71585831 2.2358445 -127.71585831 2.2358445 -126.09228516 2.20532227 C-124.68663803 2.18200584 -124.68663803 2.18200584 -123.25259399 2.15821838 C-120.96486209 2.14220015 -120.96486209 2.14220015 -119 1 C-117.00039988 0.960008 -114.99952758 0.95653201 -113 1 C-113 1.66 -113 2.32 -113 3 C-112.3426738 2.98747192 -111.6853476 2.97494385 -111.00810242 2.96203613 C-104.17899204 2.83193466 -97.34987424 2.70222846 -90.52075195 2.57275391 C-87.97061981 2.52435321 -85.42048959 2.47585103 -82.87036133 2.42724609 C-79.20915213 2.35748166 -75.54793621 2.28807974 -71.88671875 2.21875 C-70.7428923 2.19687622 -69.59906586 2.17500244 -68.420578 2.15246582 C-67.35970474 2.13244507 -66.29883148 2.11242432 -65.20581055 2.09179688 C-64.27093307 2.07403198 -63.3360556 2.05626709 -62.37284851 2.03796387 C-60.58208348 2.00931292 -58.79099421 2 -57 2 C-55.66018514 1.6937566 -54.32488113 1.36548445 -53 1 C-53 1.33 -53 1.66 -53 2 C-35.51 2 -18.02 2 0 2 C0 1.34 0 0.68 0 0 Z " fill="#1295E5" transform="translate(220,251)"/>
<path d="M0 0 C1.1697553 0.00276538 1.1697553 0.00276538 2.36314201 0.00558662 C3.7051165 0.00146263 3.7051165 0.00146263 5.07420158 -0.00274467 C6.05818932 0.00444588 7.04217705 0.01163643 8.05598259 0.01904488 C9.09015312 0.01875282 10.12432365 0.01846077 11.18983269 0.01815987 C14.62039794 0.01955721 18.05074808 0.03513748 21.48127556 0.05078316 C23.8549621 0.05451185 26.22865017 0.0573595 28.60233879 0.0593586 C34.85939065 0.06700638 41.11635012 0.0866647 47.3733654 0.10876656 C53.75437482 0.12920035 60.13539912 0.13835503 66.51643181 0.14843941 C79.04381505 0.1699095 91.57113415 0.20367648 104.09846306 0.24609566 C104.09846306 0.57609566 104.09846306 0.90609566 104.09846306 1.24609566 C87.1879289 1.85972211 70.28510002 2.32065014 53.36408806 2.49218941 C51.78738696 2.50898107 50.21068612 2.5257963 48.63398552 2.54263496 C42.224086 2.60961669 35.81418221 2.67273994 29.40412712 2.7229023 C25.39898414 2.75464135 21.39403193 2.79579984 17.38904381 2.84309769 C15.88519699 2.85902338 14.3813078 2.871388 12.87740135 2.88000488 C10.80277457 2.89213497 8.72860776 2.91624247 6.65412712 2.94311714 C5.48045586 2.95342461 4.30678459 2.96373207 3.09754753 2.97435188 C0.18289851 3.23844505 -1.50193267 3.60441819 -3.90153694 5.24609566 C-4.61881472 6.89161527 -5.28478922 8.56031855 -5.90153694 10.24609566 C-6.88249442 11.26478227 -7.87855772 12.26961549 -8.90153694 13.24609566 C-8.90153694 13.90609566 -8.90153694 14.56609566 -8.90153694 15.24609566 C-10.22153694 14.91609566 -11.54153694 14.58609566 -12.90153694 14.24609566 C-11.44516023 12.28628008 -9.98653542 10.32821018 -8.52653694 8.37109566 C-8.11403694 7.81550972 -7.70153694 7.25992378 -7.27653694 6.68750191 C-2.525174 0.32680635 -2.525174 0.32680635 0 0 Z " fill="#8FCEF3" transform="translate(62.90153694152832,187.75390434265137)"/>
<path d="M0 0 C0.99 0.66 1.98 1.32 3 2 C2.625 4.4375 2.625 4.4375 2 7 C1.34 7.33 0.68 7.66 0 8 C0 7.01 0 6.02 0 5 C-1.93784265 5.14120714 -3.87526955 5.28812873 -5.8125 5.4375 C-6.89144531 5.51871094 -7.97039062 5.59992188 -9.08203125 5.68359375 C-12.05989905 5.90212461 -12.05989905 5.90212461 -15 7 C-15 6.34 -15 5.68 -15 5 C-54.6 5 -94.2 5 -135 5 C-135 4.67 -135 4.34 -135 4 C-124.44 4 -113.88 4 -103 4 C-102.67 3.34 -102.34 2.68 -102 2 C-102 2.66 -102 3.32 -102 4 C-51.015 3.505 -51.015 3.505 1 3 C0.67 2.01 0.34 1.02 0 0 Z " fill="#1BA0EF" transform="translate(270,185)"/>
<path d="M0 0 C1.06367294 0.00222061 2.12734589 0.00444122 3.22325134 0.00672913 C5.02500572 0.00684242 5.02500572 0.00684242 6.86315918 0.00695801 C8.17042465 0.01211929 9.47769012 0.01728058 10.8245697 0.02259827 C12.16835477 0.02446253 13.51214052 0.02588639 14.85592651 0.02688599 C18.39873622 0.0307105 21.94150515 0.0405402 25.48429871 0.05158997 C29.09706572 0.06180552 32.7098393 0.06638392 36.32261658 0.07142639 C43.41573225 0.08216254 50.50882019 0.09923816 57.60191345 0.12025452 C57.60191345 0.45025452 57.60191345 0.78025452 57.60191345 1.12025452 C38.13191345 1.45025452 18.66191345 1.78025452 -1.39808655 2.12025452 C-2.38808655 4.10025452 -3.37808655 6.08025452 -4.39808655 8.12025452 C-6.46058655 8.93275452 -6.46058655 8.93275452 -8.39808655 9.12025452 C-9.38808655 9.61525452 -9.38808655 9.61525452 -10.39808655 10.12025452 C-8.84112248 6.29861544 -6.36399971 3.93406956 -3.39808655 1.12025452 C-2.39808655 0.12025452 -2.39808655 0.12025452 0 0 Z " fill="#1598E8" transform="translate(105.39808654785156,14.879745483398438)"/>
<path d="M0 0 C0.66 0.66 1.32 1.32 2 2 C4.46620164 2.33159285 4.46620164 2.33159285 7.36767578 2.31884766 C8.48868683 2.33871735 9.60969788 2.35858704 10.76467896 2.37905884 C11.97928802 2.39061005 13.19389709 2.40216125 14.4453125 2.4140625 C16.30553543 2.44311172 16.30553543 2.44311172 18.20333862 2.4727478 C21.50111779 2.5224881 24.79886139 2.56372477 28.09680176 2.60089111 C31.46177334 2.64089002 34.82657392 2.69200103 38.19140625 2.7421875 C44.79416107 2.83839787 51.39699011 2.92340383 58 3 C58 3.33 58 3.66 58 4 C38.86 4 19.72 4 0 4 C-0.33 4.66 -0.66 5.32 -1 6 C-1.33 5.01 -1.66 4.02 -2 3 C-1.34 2.01 -0.68 1.02 0 0 Z " fill="#0D9DF9" transform="translate(55,77)"/>
<path d="M0 0 C0.99 0 1.98 0 3 0 C3.495 1.98 3.495 1.98 4 4 C-15.14 4 -34.28 4 -54 4 C-54 3.67 -54 3.34 -54 3 C-27.27 2.505 -27.27 2.505 0 2 C0 1.34 0 0.68 0 0 Z " fill="#159BEC" transform="translate(220,251)"/>
<path d="M0 0 C0.66 0 1.32 0 2 0 C3.5078125 1.96875 3.5078125 1.96875 5.125 4.5 C5.66382813 5.3353125 6.20265625 6.170625 6.7578125 7.03125 C7.16773438 7.6809375 7.57765625 8.330625 8 9 C7.67 9.66 7.34 10.32 7 11 C6.01 10.67 5.02 10.34 4 10 C4 9.34 4 8.68 4 8 C1.69 8 -0.62 8 -3 8 C-3.66 9.32 -4.32 10.64 -5 12 C-5.66 12 -6.32 12 -7 12 C-5.50328459 7.50985376 -3.16631659 3.52151236 0 0 Z " fill="#458BBC" transform="translate(221,113)"/>
<path d="M0 0 C0.75 1.75 0.75 1.75 1 4 C-0.33333333 5.33333333 -1.66666667 6.66666667 -3 8 C-2.86358623 10.21858253 -2.86358623 10.21858253 -2 12 C-2.66 12 -3.32 12 -4 12 C-4.33 13.32 -4.66 14.64 -5 16 C-5.99 16 -6.98 16 -8 16 C-9.69719127 16.94726954 -11.36935236 17.94228261 -13 19 C-11.19284541 14.90034073 -8.55027936 11.42308761 -5.9375 7.8125 C-5.47794922 7.17119141 -5.01839844 6.52988281 -4.54492188 5.86914062 C-1.15472274 1.15472274 -1.15472274 1.15472274 0 0 Z " fill="#40B3F4" transform="translate(42,213)"/>
<path d="M0 0 C-0.33 0.639375 -0.66 1.27875 -1 1.9375 C-2.07271225 3.76794567 -2.07271225 3.76794567 -2 5 C-1.2575 5.9590625 -1.2575 5.9590625 -0.5 6.9375 C1 9 1 9 1 11 C-2.3 11 -5.6 11 -9 11 C-4.76923077 0 -4.76923077 0 0 0 Z M-1 4 C1 5 1 5 1 5 Z " fill="#026AB2" transform="translate(180,178)"/>
<path d="M0 0 C0.66 1.32 1.32 2.64 2 4 C1.01 5.485 1.01 5.485 0 7 C-0.66 7 -1.32 7 -2 7 C-2.2475 7.969375 -2.495 8.93875 -2.75 9.9375 C-3.1625 10.948125 -3.575 11.95875 -4 13 C-6.125 13.875 -6.125 13.875 -8 14 C-7.46719784 9.77510398 -6.12321801 7.45919284 -3.4375 4.1875 C-2.47650391 3.00220703 -2.47650391 3.00220703 -1.49609375 1.79296875 C-1.00238281 1.20128906 -0.50867188 0.60960937 0 0 Z " fill="#2C7AB0" transform="translate(176,175)"/>
<path d="M0 0 C0.95287489 3.01958327 1.14972335 3.67809479 -0.25 6.6875 C-2 9 -2 9 -5 10 C-5.70211894 11.65204456 -6.36971413 13.31923769 -7 15 C-7.99 15.495 -7.99 15.495 -9 16 C-9 16.99 -9 17.98 -9 19 C-10.32 19 -11.64 19 -13 19 C-11.68779266 16.22561876 -10.22517631 13.79209828 -8.3984375 11.328125 C-7.90859375 10.66425781 -7.41875 10.00039063 -6.9140625 9.31640625 C-6.40617187 8.63449219 -5.89828125 7.95257813 -5.375 7.25 C-4.859375 6.55261719 -4.34375 5.85523438 -3.8125 5.13671875 C-2.54440881 3.42244733 -1.2725711 1.71094844 0 0 Z " fill="#68C1F1" transform="translate(79,45)"/>
<path d="M0 0 C2.475 0.99 2.475 0.99 5 2 C4.06692579 3.44037669 3.12834923 4.87718985 2.1875 6.3125 C1.66542969 7.11300781 1.14335937 7.91351563 0.60546875 8.73828125 C-0.80389849 10.7237402 -2.22096657 12.3491852 -4 14 C-4 12.35 -4 10.7 -4 9 C-3.34 9 -2.68 9 -2 9 C-2.33 8.01 -2.66 7.02 -3 6 C-2.34 5.01 -1.68 4.02 -1 3 C-0.67 2.01 -0.34 1.02 0 0 Z " fill="#3987BB" transform="translate(129,114)"/>
<path d="M0 0 C0.763125 0.185625 1.52625 0.37125 2.3125 0.5625 C5.08967375 1.22819173 5.08967375 1.22819173 8 0 C7.67 0.99 7.34 1.98 7 3 C-3.56 3 -14.12 3 -25 3 C-25 2.67 -25 2.34 -25 2 C-12.625 1.505 -12.625 1.505 0 1 C0 0.67 0 0.34 0 0 Z " fill="#0E91E1" transform="translate(38,252)"/>
<path d="M0 0 C1.5625 1.25 1.5625 1.25 3 3 C2.6875 5.1875 2.6875 5.1875 2 7 C0.02 7.33 -1.96 7.66 -4 8 C-4 8.66 -4 9.32 -4 10 C-4.66 10 -5.32 10 -6 10 C-4.34832443 6.4213696 -2.21713508 3.25179812 0 0 Z " fill="#52B9F3" transform="translate(49,203)"/>
<path d="M0 0 C0 3.24111347 -0.74567471 5.04864638 -2 8 C-2.33 8.99 -2.66 9.98 -3 11 C-4.65 11.33 -6.3 11.66 -8 12 C-6.59023295 8.96147295 -4.91129772 6.4060405 -2.875 3.75 C-2.06675781 2.69039062 -2.06675781 2.69039062 -1.2421875 1.609375 C-0.83226562 1.07828125 -0.42234375 0.5471875 0 0 Z " fill="#65C1F5" transform="translate(22,240)"/>
<path d="M0 0 C0 3.94612369 -0.85235484 6.80821465 -3.625 9.6875 C-4.305625 10.3371875 -4.305625 10.3371875 -5 11 C-5 11.66 -5 12.32 -5 13 C-6.32 12.67 -7.64 12.34 -9 12 C-6.03 8.04 -3.06 4.08 0 0 Z " fill="#69C2F5" transform="translate(59,190)"/>
<path d="M0 0 C0.66 0.66 1.32 1.32 2 2 C4.73434962 2.3063859 7.38279821 2.5113336 10.125 2.625 C10.87910156 2.66367188 11.63320312 2.70234375 12.41015625 2.7421875 C14.27303184 2.83651031 16.13648255 2.91934662 18 3 C18 3.33 18 3.66 18 4 C12.06 4 6.12 4 0 4 C-0.33 4.66 -0.66 5.32 -1 6 C-1.33 5.01 -1.66 4.02 -2 3 C-1.34 2.01 -0.68 1.02 0 0 Z " fill="#42AEEC" transform="translate(55,77)"/>
<path d="M0 0 C0.33 0.99 0.66 1.98 1 3 C-1.35049616 7.33937752 -3.58606929 9.79303465 -8 12 C-6.59023295 8.96147295 -4.91129772 6.4060405 -2.875 3.75 C-2.06675781 2.69039062 -2.06675781 2.69039062 -1.2421875 1.609375 C-0.83226562 1.07828125 -0.42234375 0.5471875 0 0 Z " fill="#5D90B6" transform="translate(205,136)"/>
<path d="M0 0 C0.99 0.33 1.98 0.66 3 1 C1.02 3.97 -0.96 6.94 -3 10 C-3.66 8.68 -4.32 7.36 -5 6 C-4.01 6 -3.02 6 -2 6 C-2.33 5.01 -2.66 4.02 -3 3 C-2.01 2.01 -1.02 1.02 0 0 Z " fill="#51B8F5" transform="translate(308,19)"/>
<path d="M0 0 C0.99 0.66 1.98 1.32 3 2 C1.35 4.31 -0.3 6.62 -2 9 C-3 5 -3 5 -3 1 C-2.01 0.67 -1.02 0.34 0 0 Z " fill="#4CB8F7" transform="translate(233,238)"/>
<path d="M0 0 C1.32 0.66 2.64 1.32 4 2 C2.35 4.31 0.7 6.62 -1 9 C-1.66 7.68 -2.32 6.36 -3 5 C-2.34 4.67 -1.68 4.34 -1 4 C-0.34786708 1.97536745 -0.34786708 1.97536745 0 0 Z " fill="#46AFEB" transform="translate(248,216)"/>
<path d="M0 0 C0.33 0.99 0.66 1.98 1 3 C0.67 3.66 0.34 4.32 0 5 C-0.66 5 -1.32 5 -2 5 C-1.67 5.99 -1.34 6.98 -1 8 C-1.99 8.66 -2.98 9.32 -4 10 C-4.66 9.34 -5.32 8.68 -6 8 C-4.02 5.36 -2.04 2.72 0 0 Z " fill="#4B90BE" transform="translate(194,151)"/>
<path d="M0 0 C0.66 1.32 1.32 2.64 2 4 C-0.97 6.475 -0.97 6.475 -4 9 C-4.66 8.67 -5.32 8.34 -6 8 C-4.02 5.36 -2.04 2.72 0 0 Z " fill="#5498C2" transform="translate(187,160)"/>
<path d="M0 0 C2.125 0.9375 2.125 0.9375 4 2 C2.35 4.31 0.7 6.62 -1 9 C-2 5 -2 5 -2 1 C-1.34 0.67 -0.68 0.34 0 0 Z " fill="#56BBF2" transform="translate(276,61)"/>
<path d="M0 0 C0.66 0.33 1.32 0.66 2 1 C1.25 3.4375 1.25 3.4375 0 6 C-2 6.75 -2 6.75 -4 7 C-4.99 7.495 -4.99 7.495 -6 8 C-4.55746343 4.63408134 -2.66735273 2.48952921 0 0 Z " fill="#4AB6F2" transform="translate(101,17)"/>
<path d="M0 0 C0.99 0 1.98 0 3 0 C3.33 1.32 3.66 2.64 4 4 C-0.95 4 -5.9 4 -11 4 C-11 3.67 -11 3.34 -11 3 C-5.555 2.505 -5.555 2.505 0 2 C0 1.34 0 0.68 0 0 Z " fill="#1292E0" transform="translate(220,251)"/>
<path d="M0 0 C0.99 0.33 1.98 0.66 3 1 C-0.75 7.875 -0.75 7.875 -3 9 C-3 7.35 -3 5.7 -3 4 C-2.34 3.67 -1.68 3.34 -1 3 C-0.67 2.01 -0.34 1.02 0 0 Z " fill="#55BBF2" transform="translate(255,208)"/>
<path d="M0 0 C1.0625 1.875 1.0625 1.875 2 4 C1.67 4.66 1.34 5.32 1 6 C-0.32 6 -1.64 6 -3 6 C-3 6.66 -3 7.32 -3 8 C-3.66 8 -4.32 8 -5 8 C-3.62845496 5.04590299 -2.01136276 2.55991624 0 0 Z " fill="#589AC8" transform="translate(176,175)"/>
<path d="M0 0 C0.66 0 1.32 0 2 0 C0.8141763 3.37503669 -0.27573689 5.64722731 -3 8 C-3 7.34 -3 6.68 -3 6 C-3.66 6 -4.32 6 -5 6 C-5 5.34 -5 4.68 -5 4 C-3.35 3.34 -1.7 2.68 0 2 C0 1.34 0 0.68 0 0 Z " fill="#488FBF" transform="translate(157,81)"/>
<path d="M0 0 C0.6875 1.6875 0.6875 1.6875 1 4 C-0.3125 6.75 -0.3125 6.75 -2 9 C-2.66 9 -3.32 9 -4 9 C-3.46930939 5.17902761 -2.50298434 2.93828597 0 0 Z " fill="#50B1EC" transform="translate(79,45)"/>
<path d="M0 0 C0.33 0.66 0.66 1.32 1 2 C0.06553465 4.03144641 -0.93224776 6.03533587 -2 8 C-2.99 8 -3.98 8 -5 8 C-3.62845496 5.04590299 -2.01136276 2.55991624 0 0 Z " fill="#69C5F5" transform="translate(88,33)"/>
<path d="M0 0 C-1.5830577 4.2742558 -4.50568404 6.26531794 -8 9 C-6.68994234 5.06982701 -4.75047804 0 0 0 Z " fill="#005591" transform="translate(180,178)"/>
<path d="M0 0 C1.98 0.495 1.98 0.495 4 1 C2.25 5.875 2.25 5.875 0 7 C-0.93423645 3.98968256 -1.04449911 3.13349732 0 0 Z " fill="#4CB9F2" transform="translate(299,29)"/>
<path d="M0 0 C0.75 1.75 0.75 1.75 1 4 C-0.8125 6.25 -0.8125 6.25 -3 8 C-3.66 8 -4.32 8 -5 8 C-3.62845496 5.04590299 -2.01136276 2.55991624 0 0 Z " fill="#70C3F6" transform="translate(42,213)"/>
<path d="M0 0 C0.99 0 1.98 0 3 0 C2.50168276 3.68754757 1.89932357 5.60490662 -1 8 C-1 6.35 -1 4.7 -1 3 C-0.34 3 0.32 3 1 3 C0.67 2.01 0.34 1.02 0 0 Z " fill="#4C8EB8" transform="translate(126,120)"/>
<path d="M0 0 C0 3 0 3 -2.5 5.6875 C-3.325 6.450625 -4.15 7.21375 -5 8 C-5.33 7.01 -5.66 6.02 -6 5 C-3.9927092 1.9890638 -3.16115776 1.36983503 0 0 Z " fill="#69A3C8" transform="translate(152,90)"/>
<path d="M0 0 C2.0625 0.4375 2.0625 0.4375 4 1 C2.84826645 3.46800047 1.95216435 5.04783565 0 7 C-0.38133299 5.0085944 -0.71325582 3.00720923 -1 1 C-0.67 0.67 -0.34 0.34 0 0 Z " fill="#52BAF2" transform="translate(236,232)"/>
</svg>
